HIERARCHY
ROOT ui
{
	 OFFSET 0 0 0
	 CHANNELS 3 XPosition YPosition Z Position
	 EndSite
	 {
	 OFFSET 0 -1 0
	 }
}
ROOT li
{
	 OFFSET 0 0 0
	 CHANNELS 3 XPosition YPosition Z Position
	 EndSite
	 {
	 OFFSET 0 -1 0
	 }
}
ROOT ul
{
	 OFFSET 0 0 0
	 CHANNELS 3 XPosition YPosition Z Position
	 EndSite
	 {
	 OFFSET 0 -1 0
	 }
}
ROOT ll
{
	 OFFSET 0 0 0
	 CHANNELS 3 XPosition YPosition Z Position
	 EndSite
	 {
	 OFFSET 0 -1 0
	 }
}
ROOT tt
{
	 OFFSET 0 0 0
	 CHANNELS 3 XPosition YPosition Z Position
	 EndSite
	 {
	 OFFSET 0 -1 0
	 }
}
ROOT tb
{
	 OFFSET 0 0 0
	 CHANNELS 3 XPosition YPosition Z Position
	 EndSite
	 {
	 OFFSET 0 -1 0
	 }
}
ROOT td
{
	 OFFSET 0 0 0
	 CHANNELS 3 XPosition YPosition Z Position
	 EndSite
	 {
	 OFFSET 0 -1 0
	 }
}
ROOT v
{
	 OFFSET 0 0 0
	 CHANNELS 3 XPosition YPosition Z Position
	 EndSite
	 {
	 OFFSET 0 -1 0
	 }
}
ROOT bn
{
	 OFFSET 0 0 0
	 CHANNELS 3 XPosition YPosition Z Position
	 EndSite
	 {
	 OFFSET 0 -1 0
	 }
}
MOTION
Frames: 24
Frame Time: 0.002
0.02520849609375	-0.00393503999710083	0		0.5328489990234375	-2.51704443359375	0		-1.042712646484375	-0.07644920349121094	0		-0.5202837524414062	-2.60773291015625	0		2.149628662109375	-1.433880859375	0		3.699657958984375	-0.8419700317382812	0		4.975892578125	-0.5728789672851563	0		5.8951181640625	0.3169890441894531	0		-0.3247893981933594	5.8975625	0		
-0.061377685546875	0.007375879764556885	0		0.4951889343261719	-2.507319580078125	0		-1.0424237060546875	-0.07613224792480469	0		-0.5043363952636719	-2.631614013671875	0		2.183801513671875	-1.4410364990234374	0		3.721009521484375	-0.8350106201171875	0		4.976169921875	-0.5727027587890625	0		5.89532421875	0.3172555847167969	0		-0.29129269409179687	5.9034755859375	0		
0.01584603977203369	0.005791434764862061	0		0.5261559448242188	-2.5253759765625	0		-0.9700960083007812	-0.06863507843017579	0		-0.5036404418945313	-2.67229248046875	0		2.151915771484375	-1.448394287109375	0		3.71313671875	-0.84268701171875	0		4.97639697265625	-0.5725037231445312	0		5.899689453125	0.30013992309570314	0		-0.3249552001953125	5.9002001953125	0		
-0.055084503173828125	-0.0040302958488464356	0		0.4982911071777344	-2.524716796875	0		-1.043886962890625	-0.06639867401123047	0		-0.4568787841796875	-2.703489013671875	0		2.155933349609375	-1.4601497802734376	0		3.707204833984375	-0.8513624877929687	0		4.978412109375	-0.5863033447265625	0		5.891267578125	0.3007303466796875	0		-0.3246197509765625	5.90055029296875	0		
0.016195795059204102	0.006497138977050781	0		0.4983872985839844	-2.524364501953125	0		-1.029710205078125	-0.06417523193359374	0		-0.5279822998046875	-2.71927587890625	0		2.16113671875	-1.4528958740234375	0		3.70919873046875	-0.8631084594726562	0		4.96262548828125	-0.5798682250976562	0		5.89697314453125	0.2784675903320312	0		-0.32336065673828124	5.89791064453125	0		
0.03330067443847656	0.004678881168365479	0		0.5213045654296875	-2.537263671875	0		-1.0134178466796875	-0.04995913696289062	0		-0.4154065246582031	-2.761213134765625	0		2.178078857421875	-1.4657618408203126	0		3.730602783203125	-0.8380593872070312	0		4.97887109375	-0.5687874755859375	0		5.8914677734375	0.3015499267578125	0		-0.2729240112304688	5.912708984375	0		
0.02633321762084961	-0.001840657949447632	0		0.5323526611328125	-2.538007080078125	0		-1.019232666015625	-0.04346910095214844	0		-0.45665545654296874	-2.7863193359375	0		2.178162353515625	-1.4654105224609375	0		3.7106064453125	-0.8455038452148438	0		4.98590234375	-0.5745781860351562	0		5.90429248046875	0.2826226806640625	0		-0.3228453369140625	5.899705078125	0		
0.026439207077026367	-0.00143265700340271	0		0.5283612060546875	-2.5415615234375	0		-1.0191275024414062	-0.04304037094116211	0		-0.4028692626953125	-2.80854052734375	0		2.176203857421875	-1.468021240234375	0		3.710695556640625	-0.8451688842773437	0		4.98010400390625	-0.5651980590820312	0		5.90072509765625	0.2676594848632812	0		-0.3226341857910156	5.8991201171875	0		
0.023500165939331054	-0.003982503890991211	0		0.5362801513671875	-2.55225048828125	0		-1.0190319213867187	-0.04260701751708985	0		-0.44110626220703125	-2.83166552734375	0		2.1762734375	-1.46764599609375	0		3.730656494140625	-0.855058349609375	0		4.98608251953125	-0.5739445190429687	0		5.89642822265625	0.25101480102539064	0		-0.35747543334960935	5.89595654296875	0		
0.02661490821838379	-6.016589999198914E-4	0		0.5192476806640625	-2.5576396484375	0		-1.01087060546875	-0.03526886367797852	0		-0.3974924621582031	-2.86676171875	0		2.185268798828125	-1.47237109375	0		3.70897314453125	-0.833442138671875	0		4.97433203125	-0.55846728515625	0		5.8964833984375	0.2515688934326172	0		-0.30712490844726564	5.9107841796875	0		
-0.0503180046081543	0.0017304220199584961	0		0.5192613525390625	-2.55723095703125	0		-1.0667340087890624	-0.027172557830810545	0		-0.44359890747070313	-2.8757919921875	0		2.1852978515625	-1.4719859619140625	0		3.7108798828125	-0.8441015014648438	0		4.9864326171875	-0.5532646484375	0		5.89948095703125	0.2745500183105469	0		-0.3221217041015625	5.9003837890625	0		
0.026670536041259765	2.2513799369335173E-4	0		0.5421531372070313	-2.564098876953125	0		-0.9976857299804688	-0.023571321487426758	0		-0.34809719848632814	-2.915516357421875	0		2.17126416015625	-1.473432373046875	0		3.7279228515625	-0.8399349975585938	0		4.9823369140625	-0.560861572265625	0		5.8987958984375	0.2803555908203125	0		-0.3220487365722656	5.900798828125	0		
-0.054397834777832034	-4.053719937801361E-4	0		0.540058349609375	-2.565675537109375	0		-0.9996287231445312	-0.01413623046875	0		-0.35450454711914064	-2.943036376953125	0		2.203080322265625	-1.483427001953125	0		3.72480615234375	-0.8445253295898437	0		4.98331787109375	-0.5575103759765625	0		5.906595703125	0.2790141906738281	0		-0.32203921508789063	5.90220556640625	0		
0.023469146728515626	-0.0019427429437637329	0		0.562834716796875	-2.573558837890625	0		-0.9857214965820312	-0.011906392097473144	0		-0.36983447265625	-2.9594619140625	0		2.165996826171875	-1.479602783203125	0		3.707640625	-0.8479456787109375	0		4.97727197265625	-0.5510679931640625	0		5.90287158203125	0.26418359375	0		-0.2890601501464844	5.90820556640625	0		
-0.04975971221923828	-0.0046934161186218265	0		0.51961572265625	-2.57566748046875	0		-1.04776025390625	0.0012105669975280761	0		-0.34953509521484377	-3.0023310546875	0		2.172714599609375	-1.4873072509765626	0		3.73323779296875	-0.8658760375976563	0		4.9699189453125	-0.5646050415039062	0		5.9105751953125	0.2628815307617188	0		-0.30719766235351564	5.9127978515625	0		
0.030999134063720703	-0.0032981579303741457	0		0.5753527221679687	-2.57697119140625	0		-0.960906494140625	0.010528997421264648	0		-0.35991058349609373	-3.012851318359375	0		2.174498046875	-1.4839595947265625	0		3.730352294921875	-0.8344634399414063	0		4.97886474609375	-0.54732861328125	0		5.90062646484375	0.3088209228515625	0		-0.272439697265625	5.916740234375	0		
-0.051254920959472657	0.004021053791046143	0		0.5450243530273438	-2.578265625	0		-0.9690706176757813	0.024956567764282227	0		-0.3465238342285156	-3.03867724609375	0		2.20402392578125	-1.4969527587890625	0		3.70993505859375	-0.8418463745117187	0		4.9765029296875	-0.5499144287109375	0		5.90806640625	0.2746874694824219	0		-0.3088609924316406	5.91450927734375	0		
0.027232259750366212	-0.005596948146820068	0		0.5754448852539062	-2.596303466796875	0		-0.9654356689453125	0.028216949462890627	0		-0.31826312255859374	-3.070702880859375	0		2.16463623046875	-1.497135009765625	0		3.709547119140625	-0.8414710693359375	0		4.9689443359375	-0.5634366455078125	0		5.89925732421875	0.28255874633789063	0		-0.32445196533203124	5.90600634765625	0		
-0.05615302658081055	0.0016896589994430543	0		0.5470452880859376	-2.594659423828125	0		-0.9608515625	0.03243950653076172	0		-0.2070794219970703	-3.105736572265625	0		2.198128173828125	-1.503197021484375	0		3.7159931640625	-0.8501829833984375	0		4.962587890625	-0.5549714965820313	0		5.8952783203125	0.266076416015625	0		-0.325026123046875	5.90630029296875	0		
0.01726713752746582	-0.0039107630252838135	0		0.5554829711914062	-2.603474853515625	0		-1.0323033447265626	0.03853656768798828	0		-0.33660833740234375	-3.111933349609375	0		2.1706259765625	-1.5045477294921874	0		3.71165185546875	-0.8367721557617187	0		4.97412060546875	-0.5517207641601563	0		5.89003125	0.2894273376464844	0		-0.3256787109375	5.90657080078125	0		
-0.04824709701538086	1.131649985909462E-4	0		0.5290371704101563	-2.5998974609375	0		-1.0197295532226562	0.049608509063720704	0		-0.20346539306640626	-3.145270751953125	0		2.20707470703125	-1.5076710205078125	0		3.72391845703125	-0.853568359375	0		4.9735810546875	-0.5513297119140625	0		5.90167724609375	0.272501708984375	0		-0.29333804321289064	5.91142578125	0		
0.020184345245361328	5.288900136947632E-4	0		0.5794451293945313	-2.608250732421875	0		-1.026247314453125	0.05487837600708008	0		-0.2181420440673828	-3.16187939453125	0		2.164502197265625	-1.510874755859375	0		3.7136298828125	-0.8311039428710938	0		4.96223583984375	-0.5328140869140625	0		5.8854443359375	0.24599424743652343	0		-0.29409869384765625	5.91164794921875	0		
-0.0323873291015625	0.001349133014678955	0		0.5469158935546875	-2.61164599609375	0		-1.026824462890625	0.05505048370361328	0		-0.23077099609375	-3.175537109375	0		2.188966064453125	-1.511885498046875	0		3.723035888671875	-0.834884033203125	0		4.9665732421875	-0.5414915771484375	0		5.88015380859375	0.2693409118652344	0		-0.34405294799804687	5.89742333984375	0		
0.02399909210205078	-0.00413583517074585	0		0.5714033813476562	-2.61673388671875	0		-1.0142494506835937	0.06604269409179687	0		-0.2304598388671875	-3.197371826171875	0		2.151510009765625	-1.508184814453125	0		3.702635009765625	-0.8243250732421875	0		4.96604248046875	-0.541119384765625	0		5.8876005859375	0.2680929565429688	0		-0.3458153076171875	5.89860595703125	0		
